<svg xmlns="http://www.w3.org/2000/svg" width="512" height="512" viewBox="0 0 512 512"><defs><radialGradient id="bg"><stop stop-color="#067eac"/><stop offset="1" stop-color="#111c38"/></radialGradient><linearGradient id="gold" x2="0" y2="1"><stop stop-color="#fff8a9"/><stop offset=".38" stop-color="#ffd73f"/><stop offset="1" stop-color="#e7850b"/></linearGradient><linearGradient id="ice" x2="0" y2="1"><stop stop-color="#eaffff"/><stop offset=".4" stop-color="#55e6ff"/><stop offset="1" stop-color="#147ee6"/></linearGradient></defs><circle cx="256" cy="256" r="245" fill="#101523"/><circle cx="256" cy="256" r="235" fill="url(#gold)"/><circle cx="256" cy="256" r="220" fill="url(#bg)" stroke="#694210" stroke-width="5"/><path d="M256 256 L486.0 256.0 L484.0 286.0 Z" fill="#fff" opacity=".08"/><path d="M256 256 L478.2 315.5 L468.5 344.0 Z" fill="#fff" opacity=".08"/><path d="M256 256 L455.2 371.0 L438.5 396.0 Z" fill="#fff" opacity=".08"/><path d="M256 256 L418.6 418.6 L396.0 438.5 Z" fill="#fff" opacity=".08"/><path d="M256 256 L371.0 455.2 L344.0 468.5 Z" fill="#fff" opacity=".08"/><path d="M256 256 L315.5 478.2 L286.0 484.0 Z" fill="#fff" opacity=".08"/><path d="M256 256 L256.0 486.0 L226.0 484.0 Z" fill="#fff" opacity=".08"/><path d="M256 256 L196.5 478.2 L168.0 468.5 Z" fill="#fff" opacity=".08"/><path d="M256 256 L141.0 455.2 L116.0 438.5 Z" fill="#fff" opacity=".08"/><path d="M256 256 L93.4 418.6 L73.5 396.0 Z" fill="#fff" opacity=".08"/><path d="M256 256 L56.8 371.0 L43.5 344.0 Z" fill="#fff" opacity=".08"/><path d="M256 256 L33.8 315.5 L28.0 286.0 Z" fill="#fff" opacity=".08"/><path d="M256 256 L26.0 256.0 L28.0 226.0 Z" fill="#fff" opacity=".08"/><path d="M256 256 L33.8 196.5 L43.5 168.0 Z" fill="#fff" opacity=".08"/><path d="M256 256 L56.8 141.0 L73.5 116.0 Z" fill="#fff" opacity=".08"/><path d="M256 256 L93.4 93.4 L116.0 73.5 Z" fill="#fff" opacity=".08"/><path d="M256 256 L141.0 56.8 L168.0 43.5 Z" fill="#fff" opacity=".08"/><path d="M256 256 L196.5 33.8 L226.0 28.0 Z" fill="#fff" opacity=".08"/><path d="M256 256 L256.0 26.0 L286.0 28.0 Z" fill="#fff" opacity=".08"/><path d="M256 256 L315.5 33.8 L344.0 43.5 Z" fill="#fff" opacity=".08"/><path d="M256 256 L371.0 56.8 L396.0 73.5 Z" fill="#fff" opacity=".08"/><path d="M256 256 L418.6 93.4 L438.5 116.0 Z" fill="#fff" opacity=".08"/><path d="M256 256 L455.2 141.0 L468.5 168.0 Z" fill="#fff" opacity=".08"/><path d="M256 256 L478.2 196.5 L484.0 226.0 Z" fill="#fff" opacity=".08"/><circle cx="256" cy="256" r="212" fill="none" stroke="#fff1a0" stroke-opacity=".65" stroke-width="2"/><path d="M177 134 Q226 149 235 200 L325 228 Q360 237 376 273 L376 298 Q252 322 136 280 L127 238 148 219 141 159Z" fill="url(#ice)" stroke="#092640" stroke-width="9" stroke-linejoin="round"/><path d="M132 263 Q252 303 376 275 L376 306 Q242 332 135 288Z" fill="#f1fcff" stroke="#092640" stroke-width="6"/><path d="M185 180l56 12m-43 10 58 13m-42 7 61 13" stroke="#fff" stroke-width="10" stroke-linecap="round"/><path d="M74 192h62M61 221h64M71 250h44" stroke="#a8f8ff" stroke-width="12" stroke-linecap="round"/><text x="326" y="163" text-anchor="middle" font-family="Arial Black" font-weight="900" font-size="90" fill="url(#gold)" stroke="#13203b" stroke-width="11" paint-order="stroke">2X</text><path d="M66 369 Q256 336 446 369 L425 425 Q256 402 87 425Z" fill="#121827" stroke="#ffd95a" stroke-width="5"/><text x="256" y="398" text-anchor="middle" font-family="Arial Black,Arial" font-weight="900" font-size="42" fill="#fff5b0" stroke="#060b16" stroke-width="7" paint-order="stroke">2X SPEED</text><path d="M127 96l5 18 18 5-18 5-5 18-5-18-18-5 18-5z M401 273l4 13 13 4-13 4-4 13-4-13-13-4 13-4z" fill="#fff6c5"/></svg>